<svg width="114" height="113" xmlns="http://www.w3.org/2000/svg" xmlns:xlink="http://www.w3.org/1999/xlink" overflow="hidden"><defs><clipPath id="clip0"><rect x="590" y="69" width="114" height="113"/></clipPath></defs><g clip-path="url(#clip0)" transform="translate(-590 -69)"><path d="M82.6033 56.4641 75.1446 56.4641 75.1446 86.3227 82.6033 86.3227 82.6033 56.4641ZM45.314 90.054 30.3967 90.054 30.3967 97.5166 45.314 97.5166 45.314 90.054ZM22.9381 52.7687 30.3967 52.7687 30.3967 45.3021 22.9381 45.3021 22.9381 52.7687ZM30.3967 56.4641 30.3967 78.856 15.4794 78.856C11.3614 78.856 8.02074 75.5154 8.02074 71.3934 8.02074 67.2714 11.3614 63.9268 15.4794 63.9268L22.9381 63.9268 22.9381 56.4641 15.4794 56.4641C7.24339 56.4641 0.56209 63.1454 0.56209 71.3934 0.56209 79.6414 7.2394 86.3227 15.4794 86.3227L37.8554 86.3227 37.8554 63.9268 45.314 63.9268 45.314 86.3227 67.69 86.3227 67.69 56.4641 60.2313 56.4641 60.2313 78.856 52.7727 78.856 52.7727 56.4641 30.3967 56.4641ZM60.2313 45.306 45.314 45.306 45.314 52.7727 60.2313 52.7727 60.2313 45.306ZM97.4967 35.0529 90.0141 35.0529C89.5397 40.7974 84.736 45.314 78.876 45.314 72.697 45.314 67.69 40.303 67.69 34.1201 67.69 28.252 72.2026 23.4443 77.9431 22.9699L77.9431 15.4794C68.0806 15.9657 60.2313 24.126 60.2313 34.1161 60.2313 44.421 68.5789 52.7767 78.876 52.7767 88.862 52.7806 97.0103 44.9233 97.4967 35.0529M112.438 71.3934C112.438 63.1454 105.761 56.4641 97.5206 56.4641L90.062 56.4641 90.062 63.9268 97.5206 63.9268C101.639 63.9268 104.979 67.2714 104.979 71.3934 104.979 75.4875 101.682 78.8162 97.6003 78.856L90.062 78.856 90.062 86.3227 97.5206 86.3227C105.761 86.3227 112.438 79.6374 112.438 71.3934" fill="#FFFFFF" transform="matrix(1.00885 0 0 1 590 69)"/><path d="M79.8088 21.0923 79.8088 22.966C85.2423 23.4164 89.5676 27.7497 90.0181 33.1872L91.8917 33.1872C91.4333 26.7172 86.2708 21.5508 79.8088 21.0923M79.8088 18.2859 79.8088 20.1555C86.7891 20.6139 92.3661 26.199 92.8246 33.1832L94.6942 33.1832C94.2278 25.1665 87.8176 18.7523 79.8088 18.2859M97.4967 33.1872C97.0263 23.6237 89.3643 15.9498 79.8088 15.4834L79.8088 17.353C88.3358 17.8194 95.1646 24.6562 95.631 33.1912L97.4967 33.1912Z" fill="#FFFFFF" transform="matrix(1.00885 0 0 1 590 69)"/></g></svg>