<svg width="647" height="33" xmlns="http://www.w3.org/2000/svg" xmlns:xlink="http://www.w3.org/1999/xlink" overflow="hidden"><defs><clipPath id="clip0"><rect x="-10" y="66" width="647" height="33"/></clipPath></defs><g clip-path="url(#clip0)" transform="translate(10 -66)"><path d="M635.347 0.509145 276.439 0.509145C268.494 0.509145 260.883 3.65781 255.269 9.27181L241.054 23.4877C235.44 29.1017 227.829 32.2503 219.884 32.2503L0 32.2503" stroke="#F68B1F" stroke-width="1.00489" stroke-linejoin="round" fill="none" transform="matrix(1 0 0 1.00734 -4.1733 66)"/><path d="M249.441 18.1953C247.726 18.1953 246.346 16.8018 246.346 15.1002 246.346 13.3986 247.739 12.0051 249.441 12.0051 251.143 12.0051 252.536 13.3986 252.536 15.1002 252.536 16.8018 251.143 18.1953 249.441 18.1953Z" fill="#F68B1F" transform="matrix(1 0 0 1.00734 -4.1733 66)"/><path d="M249.441 13.5459C250.299 13.5459 250.995 14.2427 250.995 15.1002 250.995 15.9577 250.299 16.6544 249.441 16.6544 248.584 16.6544 247.887 15.9577 247.887 15.1002 247.887 14.2427 248.584 13.5459 249.441 13.5459M249.441 10.4509 249.441 10.4509C246.882 10.4509 244.792 12.5411 244.792 15.1002 244.792 17.6593 246.882 19.7495 249.441 19.7495 252 19.7495 254.09 17.6593 254.09 15.1002 254.09 12.5411 252 10.4509 249.441 10.4509L249.441 10.4509Z" fill="#FFFFFF" transform="matrix(1 0 0 1.00734 -4.1733 66)"/></g></svg>