<svg width="79" height="78" xmlns="http://www.w3.org/2000/svg" xmlns:xlink="http://www.w3.org/1999/xlink" overflow="hidden"><defs><clipPath id="clip0"><rect x="666" y="19" width="79" height="78"/></clipPath></defs><g clip-path="url(#clip0)" transform="translate(-666 -19)"><path d="M57.0182 38.9752 51.8698 38.9752 51.8698 59.5855 57.0182 59.5855 57.0182 38.9752ZM31.2787 62.1612 20.9818 62.1612 20.9818 67.3124 31.2787 67.3124 31.2787 62.1612ZM15.8333 36.4244 20.9818 36.4244 20.9818 31.2704 15.8333 31.2704 15.8333 36.4244ZM20.9818 38.9752 20.9818 54.4316 10.6849 54.4316C7.84238 54.4316 5.53644 52.1257 5.53644 49.2804 5.53644 46.4351 7.84238 44.1264 10.6849 44.1264L15.8333 44.1264 15.8333 38.9752 10.6849 38.9752C4.99986 38.9752 0.387991 43.5871 0.387991 49.2804 0.387991 54.9737 4.99711 59.5855 10.6849 59.5855L26.1302 59.5855 26.1302 44.1264 31.2787 44.1264 31.2787 59.5855 46.7241 59.5855 46.7241 38.9752 41.5756 38.9752 41.5756 54.4316 36.4272 54.4316 36.4272 38.9752 20.9818 38.9752ZM41.5756 31.2732 31.2787 31.2732 31.2787 36.4272 41.5756 36.4272 41.5756 31.2732ZM67.2986 24.1958 62.1336 24.1958C61.8062 28.161 58.4904 31.2787 54.4454 31.2787 50.1802 31.2787 46.7241 27.8198 46.7241 23.5519 46.7241 19.5014 49.839 16.1828 53.8015 15.8554L53.8015 10.6849C46.9937 11.0206 41.5756 16.6534 41.5756 23.5491 41.5756 30.6623 47.3377 36.4299 54.4454 36.4299 61.3384 36.4327 66.9629 31.009 67.2986 24.1958M77.612 49.2804C77.612 43.5871 73.0029 38.9752 67.3151 38.9752L62.1667 38.9752 62.1667 44.1264 67.3151 44.1264C70.1576 44.1264 72.4636 46.4351 72.4636 49.2804 72.4636 52.1064 70.1879 54.4041 67.3701 54.4316L62.1667 54.4316 62.1667 59.5855 67.3151 59.5855C73.0029 59.5855 77.612 54.9709 77.612 49.2804" fill="#006839" transform="matrix(1.01282 0 0 1 666 19)"/><path d="M55.0893 14.5593 55.0893 15.8526C58.8398 16.1636 61.8254 19.1547 62.1364 22.908L63.4297 22.908C63.1132 18.442 59.5498 14.8758 55.0893 14.5593M55.0893 12.6221 55.0893 13.9127C59.9075 14.2291 63.7571 18.0842 64.0736 22.9052L65.3641 22.9052C65.0422 17.3716 60.6174 12.944 55.0893 12.6221M67.2986 22.908C66.9739 16.3066 61.6851 11.0096 55.0893 10.6876L55.0893 11.9782C60.9752 12.3001 65.6888 17.0193 66.0108 22.9107L67.2986 22.9107Z" fill="#F68B1F" transform="matrix(1.01282 0 0 1 666 19)"/></g></svg>